<svg width="104" height="30" viewBox="0 0 104 30" fill="none" xmlns="http://www.w3.org/2000/svg">
<path fill-rule="evenodd" clip-rule="evenodd" d="M15.384 6.36168H22.14C24.324 6.36168 26.102 8.28768 26.108 10.6557V24.1197C26.108 26.4877 24.33 28.4137 22.146 28.4137H21.588C21.5256 29.0065 21.0261 29.4569 20.43 29.4577H18.6C18.0046 29.4558 17.5063 29.0058 17.444 28.4137H8.658C8.59563 29.0065 8.09612 29.4569 7.5 29.4577H5.676C5.08064 29.4558 4.58229 29.0058 4.52 28.4137H3.96C1.776 28.4137 0 26.4877 0 24.1197V10.6577C0 8.28968 1.776 6.36168 3.96 6.36168H10.716L5.76 1.62768C5.50915 1.39897 5.4018 1.05236 5.47946 0.721899C5.55711 0.391437 5.80761 0.128923 6.13407 0.0358726C6.46053 -0.0571777 6.81179 0.0338226 7.052 0.273683L13.052 6.00368L19.052 0.273683C19.4279 -0.069032 20.0087 -0.0488287 20.3598 0.319178C20.711 0.687184 20.7039 1.26827 20.344 1.62768L15.384 6.36168ZM22.14 26.5417C23.292 26.5417 24.23 25.4537 24.23 24.1177V10.6557C24.23 9.31768 23.292 8.23168 22.14 8.23168H3.96C2.808 8.23168 1.87 9.31768 1.87 10.6557V24.1177C1.87 25.4537 2.808 26.5417 3.96 26.5417H22.14Z" fill="url(#paint0_linear)"/>
<path d="M20.748 20.8977V20.8617C20.747 20.847 20.747 20.8323 20.748 20.8177C20.747 20.8037 20.747 20.7897 20.748 20.7757C20.748 20.7637 20.748 20.7497 20.748 20.7377C20.748 20.7257 20.748 20.7077 20.748 20.6917C20.748 20.6757 20.748 20.6677 20.748 20.6537C20.749 20.6377 20.749 20.6217 20.748 20.6057C20.749 20.5937 20.749 20.5817 20.748 20.5697C20.749 20.553 20.749 20.5363 20.748 20.5197C20.748 20.5077 20.748 20.4937 20.748 20.4817V20.4317V20.3937V20.3397V20.3017C20.749 20.2837 20.749 20.2657 20.748 20.2477V20.2077C20.748 20.1897 20.748 20.1717 20.748 20.1537V20.1137C20.748 20.0937 20.748 20.0757 20.748 20.0577C20.747 20.0437 20.747 20.0297 20.748 20.0157C20.7065 20.0029 20.6668 19.9847 20.63 19.9617C20.63 19.9477 20.63 19.9337 20.63 19.9197C20.63 19.9057 20.63 19.8817 20.63 19.8617C20.63 19.8417 20.63 19.8337 20.62 19.8177L20.608 19.7597C20.608 19.7457 20.608 19.7297 20.598 19.7137C20.588 19.6977 20.598 19.6757 20.584 19.6557C20.5816 19.6395 20.5783 19.6235 20.574 19.6077C20.574 19.5877 20.574 19.5697 20.56 19.5497L20.548 19.4997C20.548 19.4797 20.548 19.4597 20.534 19.4397C20.5303 19.4228 20.5256 19.4061 20.52 19.3897C20.52 19.3697 20.52 19.3497 20.506 19.3297C20.492 19.3097 20.496 19.2937 20.492 19.2777C20.488 19.2617 20.48 19.2357 20.476 19.2157C20.472 19.1957 20.476 19.1797 20.46 19.1617C20.444 19.1437 20.45 19.1217 20.444 19.1017C20.438 19.0817 20.432 19.0637 20.428 19.0437L20.41 18.9837L20.392 18.9257L20.374 18.8637L20.356 18.8017L20.338 18.7417C20.338 18.7217 20.324 18.6997 20.316 18.6777L20.298 18.6177C20.298 18.5957 20.284 18.5717 20.276 18.5497L20.258 18.4917C20.258 18.4677 20.24 18.4437 20.232 18.4177L20.214 18.3637L20.188 18.2837L20.17 18.2337L20.138 18.1437C20.1335 18.1287 20.1282 18.114 20.122 18.0997L20.074 17.9637C19.128 15.3637 17.396 12.5457 16.536 12.2437C16.4981 12.2289 16.4584 12.2195 16.418 12.2157C16.3685 12.2167 16.3197 12.2269 16.274 12.2457C15.506 12.5237 14.054 14.7877 13.074 17.1097C12.002 14.5557 10.352 12.0757 9.67399 12.2217C8.87399 12.3437 7.08599 15.1837 6.09399 17.8397C6.07999 17.8817 6.06399 17.9237 6.04799 17.9657L5.99999 18.1017C5.9938 18.116 5.98846 18.1307 5.98399 18.1457C5.97399 18.1757 5.96199 18.2057 5.95199 18.2337L5.93399 18.2877C5.93399 18.3137 5.91599 18.3397 5.90799 18.3657L5.88999 18.4197L5.86599 18.4937C5.86599 18.5117 5.85399 18.5297 5.84799 18.5477L5.82399 18.6217L5.80599 18.6757C5.80599 18.6977 5.79199 18.7217 5.78399 18.7457C5.77599 18.7697 5.77399 18.7817 5.76799 18.7977C5.76199 18.8137 5.75399 18.8457 5.74799 18.8677C5.74175 18.8847 5.7364 18.9021 5.73199 18.9197L5.71199 18.9877C5.71199 19.0057 5.70199 19.0217 5.69799 19.0377C5.69399 19.0537 5.68399 19.0837 5.67799 19.1057C5.67199 19.1277 5.66799 19.1397 5.66399 19.1557L5.64599 19.2217L5.63399 19.2697L5.61599 19.3357L5.60399 19.3817C5.60399 19.4037 5.59199 19.4257 5.58799 19.4477L5.57599 19.4917C5.57599 19.5137 5.57599 19.5357 5.55999 19.5577C5.55761 19.5719 5.55426 19.5859 5.54999 19.5997C5.54999 19.6217 5.54999 19.6437 5.53599 19.6657C5.52199 19.6877 5.53599 19.6937 5.52599 19.7077C5.51599 19.7217 5.52599 19.7497 5.51199 19.7717C5.49799 19.7937 5.51199 19.7977 5.51199 19.8117C5.51199 19.8257 5.51199 19.8537 5.49799 19.8737V19.9137C5.49799 19.9337 5.48799 19.9557 5.48599 19.9757C5.48485 19.9883 5.48485 20.001 5.48599 20.0137L5.47399 20.0757V20.1097C5.47511 20.131 5.47511 20.1524 5.47399 20.1737C5.47302 20.1843 5.47302 20.195 5.47399 20.2057C5.47399 20.2277 5.47399 20.2477 5.46399 20.2697C5.46301 20.2797 5.46301 20.2897 5.46399 20.2997C5.46399 20.3217 5.46399 20.3417 5.46399 20.3637C5.46399 20.3857 5.46399 20.3817 5.46399 20.3917C5.46399 20.4017 5.46399 20.4337 5.46399 20.4557C5.46399 20.4777 5.46399 20.4737 5.46399 20.4817C5.46399 20.4897 5.46399 20.5237 5.46399 20.5457C5.46497 20.5537 5.46497 20.5617 5.46399 20.5697V20.6357C5.46399 20.6357 5.46399 20.6477 5.46399 20.6537C5.46399 20.6597 5.46399 20.6997 5.46399 20.7237C5.46302 20.7283 5.46302 20.7331 5.46399 20.7377C5.46399 20.7617 5.46399 20.7877 5.46399 20.8097V20.8097C5.46399 20.8357 5.46399 20.8637 5.46399 20.8897V20.8897C5.46399 20.9957 5.46399 21.0897 5.46399 21.1917V21.2017C5.46399 21.2217 5.46399 21.2417 5.46399 21.2617V21.2617C5.51199 21.9557 5.77599 22.3517 6.16999 22.4977V22.4977C6.99199 22.7917 8.07199 21.8977 9.11399 19.0317C9.39858 18.2405 9.63567 17.4331 9.82399 16.6137C9.97689 17.4345 10.1793 18.2453 10.43 19.0417C11.252 21.2977 12.096 22.3317 12.83 22.5237L12.89 22.5377V22.5377C12.9415 22.5476 12.9936 22.5536 13.046 22.5557H13.152H13.186V22.5557C13.1993 22.5576 13.2127 22.5576 13.226 22.5557H13.274H13.296C14.02 22.3697 14.87 21.3357 15.696 19.0697C15.9731 18.2999 16.2049 17.5146 16.39 16.7177C16.5749 17.5149 16.8073 18.3003 17.086 19.0697C18.128 21.9297 19.208 22.8277 20.028 22.5317V22.5317C20.428 22.3877 20.686 21.9897 20.734 21.2957V21.2957C20.734 21.2737 20.734 21.2517 20.734 21.2317V21.2317C20.734 21.1597 20.734 21.0857 20.734 21.0077V20.9617C20.7401 20.9407 20.7448 20.9193 20.748 20.8977Z" fill="url(#paint1_linear)"/>
<path d="M13.374 22.5057H13.376V22.5037V22.5037V22.5037L13.374 22.5057V22.5057Z" fill="url(#paint2_linear)"/>
<path d="M35.794 27.2377C33.526 27.2377 31.484 26.7337 29.944 25.9237L30.364 23.0677C31.764 23.9917 33.75 24.8037 35.878 24.8037C38.078 24.8037 39.678 23.7117 39.678 21.7537C39.678 19.9057 38.81 19.1537 35.62 17.7777C31.646 16.0437 30.162 14.7777 30.162 11.8737C30.162 8.5977 32.738 6.49969 36.544 6.49969C38.586 6.49969 40.098 6.97569 41.33 7.64769L40.882 10.4477C39.5891 9.49706 38.0344 8.96836 36.43 8.9337C34.03 8.9337 32.932 10.1657 32.932 11.6497C32.932 13.1877 33.742 13.9157 36.962 15.3437C41.02 17.1437 42.446 18.4777 42.446 21.5297C42.454 25.0277 39.74 27.2377 35.794 27.2377Z" fill="black"/>
<path d="M49.43 27.2657C46.77 27.2657 45.008 26.3157 45.008 23.3197V14.3917H42.65V12.0697H45.002V7.08769L47.688 6.66769V12.0677H51.102L51.466 14.3897H47.688V22.8417C47.688 24.0737 48.248 24.8297 49.87 24.8297C50.33 24.8414 50.79 24.8038 51.242 24.7177L51.606 27.0677C50.8904 27.2148 50.1605 27.2812 49.43 27.2657V27.2657Z" fill="black"/>
<path d="M63.5 27.0137L63.136 24.8597C61.626 26.1757 59.778 27.3217 57.622 27.3217C54.622 27.3217 53.088 25.6437 53.088 22.9217V12.0697H55.86V22.2557C55.86 23.8237 56.588 24.8557 58.322 24.8557C59.89 24.8557 61.458 23.8757 62.912 22.4197V12.0697H65.684V27.0137H63.5Z" fill="black"/>
<path fill-rule="evenodd" clip-rule="evenodd" d="M78.612 24.8597L78.976 27.0137H81.16V4.39969L78.418 4.81969V12.5457C77.1528 12.0873 75.8156 11.8597 74.47 11.8737C70.692 11.8737 67.418 14.5037 67.418 19.9617C67.418 24.9717 70.216 27.3217 73.576 27.3217C75.842 27.3217 77.438 26.2037 78.612 24.8597ZM74.554 14.1957C76.206 14.1957 77.186 14.4477 78.418 15.0357V22.2557C77.13 23.8517 75.768 24.8877 73.968 24.8877C71.816 24.8877 70.216 23.1517 70.216 19.8497C70.216 16.1277 72.064 14.1957 74.554 14.1957Z" fill="black"/>
<path fill-rule="evenodd" clip-rule="evenodd" d="M84.1516 8.52689C84.4898 8.85272 84.9445 9.02949 85.414 9.01768C85.8791 9.02629 86.328 8.84728 86.6595 8.52103C86.991 8.19479 87.1772 7.7488 87.176 7.28368C87.1706 6.3125 86.3852 5.52624 85.414 5.51968C84.4338 5.51949 83.6336 6.30366 83.614 7.28368C83.6197 7.7533 83.8134 8.20105 84.1516 8.52689ZM84.014 12.0697V27.0177L86.784 27.0137V12.0697H84.014Z" fill="black"/>
<path fill-rule="evenodd" clip-rule="evenodd" d="M88.744 19.5697C88.744 24.4677 91.738 27.3217 95.852 27.3217C99.966 27.3217 103.052 24.4877 103.052 19.5697C103.052 14.6517 99.994 11.7697 95.852 11.7697C91.766 11.7697 88.744 14.6717 88.744 19.5697ZM91.542 19.5697C91.542 16.3797 93.026 14.0557 95.852 14.0557C98.652 14.0557 100.246 16.4637 100.252 19.5697C100.252 22.7317 98.734 25.0277 95.852 25.0277C93.082 25.0277 91.542 22.6477 91.542 19.5697Z" fill="black"/>
<defs>
<linearGradient id="paint0_linear" x1="-8.44652" y1="21.1166" x2="20.3278" y2="47.1394" gradientUnits="userSpaceOnUse">
<stop stop-color="#F22E97"/>
<stop offset="1" stop-color="#F25511"/>
</linearGradient>
<linearGradient id="paint1_linear" x1="-18.6045" y1="16.6428" x2="-4.90357" y2="50.9167" gradientUnits="userSpaceOnUse">
<stop stop-color="#F22E97"/>
<stop offset="1" stop-color="#F25511"/>
</linearGradient>
<linearGradient id="paint2_linear" x1="9.94102" y1="22.2647" x2="13.135" y2="25.9387" gradientUnits="userSpaceOnUse">
<stop stop-color="#F22E97"/>
<stop offset="1" stop-color="#F25511"/>
</linearGradient>
</defs>
</svg>
